<?xml version="1.0" encoding="UTF-8"?>
<!DOCTYPE svg PUBLIC "-//W3C//DTD SVG 1.1//EN" "http://www.w3.org/Graphics/SVG/1.1/DTD/svg11.dtd">
<svg xmlns="http://www.w3.org/2000/svg" version="1.1" width="555px" height="594px" style="shape-rendering:geometricPrecision; text-rendering:geometricPrecision; image-rendering:optimizeQuality; fill-rule:evenodd; clip-rule:evenodd" xmlns:xlink="http://www.w3.org/1999/xlink">
<g><path style="opacity:0.998" fill="#fafafa" d="M 270.5,-0.5 C 274.5,-0.5 278.5,-0.5 282.5,-0.5C 288.189,1.44077 293.023,4.7741 297,9.5C 310.519,24.2084 318.352,41.5418 320.5,61.5C 319.593,71.388 316.593,80.5547 311.5,89C 313.892,93.7186 317.726,96.5519 323,97.5C 319.583,76.1441 326.416,58.6441 343.5,45C 354.395,36.886 366.395,30.886 379.5,27C 395.964,26.2945 405.297,34.1278 407.5,50.5C 402.45,70.2526 398.616,90.2526 396,110.5C 394.095,125.172 394.095,139.838 396,154.5C 404.755,141.989 413.755,129.656 423,117.5C 434.337,108.346 445.837,108.18 457.5,117C 468.321,125.576 479.321,133.91 490.5,142C 498.988,151.123 500.488,161.289 495,172.5C 485.929,185.574 476.096,198.074 465.5,210C 461.312,212.062 456.979,213.729 452.5,215C 450.12,218.258 447.62,221.424 445,224.5C 445.665,239.138 446.498,253.805 447.5,268.5C 465.503,268.333 483.503,268.5 501.5,269C 519.015,271.517 529.848,281.35 534,298.5C 534.963,330.206 534.629,361.873 533,393.5C 529.683,402.145 524.183,408.978 516.5,414C 510.983,416.504 505.483,419.004 500,421.5C 495.455,431.591 490.622,441.591 485.5,451.5C 488.481,460.757 491.147,470.091 493.5,479.5C 507.859,479.29 522.192,479.79 536.5,481C 545.682,483.683 551.682,489.517 554.5,498.5C 554.5,502.5 554.5,506.5 554.5,510.5C 549.66,526.499 544.493,542.499 539,558.5C 529.359,573.153 515.693,579.819 498,578.5C 462.791,577.644 427.624,576.144 392.5,574C 375.46,569.946 361.96,560.779 352,546.5C 328.571,559.62 307.071,575.287 287.5,593.5C 280.5,593.5 273.5,593.5 266.5,593.5C 246.864,575.376 225.364,559.71 202,546.5C 192.04,560.779 178.54,569.946 161.5,574C 126.376,576.144 91.2089,577.644 56,578.5C 38.3074,579.819 24.6408,573.153 15,558.5C 9.50675,542.499 4.34008,526.499 -0.5,510.5C -0.5,506.5 -0.5,502.5 -0.5,498.5C 2.318,489.517 8.318,483.683 17.5,481C 36.2035,480.208 54.8702,479.041 73.5,477.5C 76.3668,468.899 79.0335,460.233 81.5,451.5C 77.566,443.132 73.2326,434.966 68.5,427C 58.7525,423.195 49.0858,419.195 39.5,415C 28.6603,408.49 22.1603,398.99 20,386.5C 19.3333,358.167 19.3333,329.833 20,301.5C 22.7617,285.405 31.9283,274.905 47.5,270C 67.1205,268.562 86.7871,268.062 106.5,268.5C 107.375,253.502 107.875,238.502 108,223.5C 105.833,220.667 103.667,217.833 101.5,215C 94.0589,213.697 87.8922,210.197 83,204.5C 75,193.833 67,183.167 59,172.5C 53.5121,161.289 55.0121,151.123 63.5,142C 76.5,132.333 89.5,122.667 102.5,113C 112.096,108.963 121.096,109.963 129.5,116C 139.025,128.024 148.358,140.191 157.5,152.5C 158.824,136.483 158.657,120.483 157,104.5C 154.072,86.361 150.572,68.361 146.5,50.5C 147.872,33.964 156.872,26.1307 173.5,27C 193.02,32.001 209.187,42.1676 222,57.5C 230.918,69.8035 233.752,83.1369 230.5,97.5C 236.036,96.7921 240.036,93.9587 242.5,89C 230.772,69.7001 230.605,50.2001 242,30.5C 247.64,20.1872 254.806,11.0205 263.5,3C 265.925,1.78739 268.259,0.620727 270.5,-0.5 Z"/></g>
<g><path style="opacity:1" fill="#fdb90a" d="M 374.5,173.5 C 366.527,157.036 353.861,145.536 336.5,139C 296.471,123.708 256.471,123.708 216.5,139C 204.821,144.426 194.654,151.926 186,161.5C 183.888,164.727 182.055,168.06 180.5,171.5C 179.861,170.903 179.528,170.07 179.5,169C 185.55,128.798 182.216,89.4645 169.5,51C 185.815,54.9127 198.315,64.0794 207,78.5C 207.667,82.1667 207.667,85.8333 207,89.5C 205.025,92.9716 202.858,96.3049 200.5,99.5C 204.645,110.809 212.645,117.643 224.5,120C 251.644,120.859 266.144,107.693 268,80.5C 259.132,74.0775 255.798,65.4109 258,54.5C 261.605,42.6205 267.772,32.2871 276.5,23.5C 286.074,32.6416 292.574,43.6416 296,56.5C 297.339,66.4896 294.006,74.4896 286,80.5C 286.066,98.9028 294.566,111.736 311.5,119C 326.071,122.733 338.571,119.233 349,108.5C 350.959,105.544 352.459,102.377 353.5,99C 344.495,91.2916 343.328,82.4583 350,72.5C 358.803,62.3352 369.636,55.0018 382.5,50.5C 382.833,50.8333 383.167,51.1667 383.5,51.5C 370.944,91.5103 367.944,132.177 374.5,173.5 Z"/></g>
<g><path style="opacity:1" fill="#04255c" d="M 374.5,173.5 C 377.103,180.543 378.103,187.876 377.5,195.5C 386.506,195.666 395.506,195.5 404.5,195C 411.026,186.641 417.359,178.141 423.5,169.5C 422.472,167.639 420.972,166.305 419,165.5C 418.333,164.5 418.333,163.5 419,162.5C 425.924,152.986 433.091,143.653 440.5,134.5C 451.975,142.808 463.308,151.308 474.5,160C 467.167,169.667 459.833,179.333 452.5,189C 449.728,188.948 447.394,187.781 445.5,185.5C 437.102,195.948 428.936,206.615 421,217.5C 422.456,242.467 423.623,267.467 424.5,292.5C 449.836,292.333 475.169,292.5 500.5,293C 505.284,294.125 508.451,296.958 510,301.5C 510.667,329.833 510.667,358.167 510,386.5C 508.833,388.333 507.667,390.167 506.5,392C 489.582,399.528 472.582,406.861 455.5,414C 462.388,414.677 469.055,416.177 475.5,418.5C 470.032,428.604 464.698,438.77 459.5,449C 464.008,461.689 468.008,474.522 471.5,487.5C 459.183,485.935 446.85,484.768 434.5,484C 419.839,488.499 405.505,493.833 391.5,500C 437.507,501.076 483.507,502.409 529.5,504C 529.957,504.414 530.291,504.914 530.5,505.5C 526.513,518.449 522.679,531.449 519,544.5C 517.073,549.428 513.573,552.594 508.5,554C 471.815,553.924 435.148,552.924 398.5,551C 392.008,549.42 386.008,546.754 380.5,543C 372.928,534.105 365.428,525.272 358,516.5C 328.172,530.989 301.006,549.323 276.5,571.5C 252.512,549.083 225.679,530.749 196,516.5C 188.572,525.272 181.072,534.105 173.5,543C 168.002,546.748 162.002,549.415 155.5,551C 118.519,552.946 81.5193,553.946 44.5,554C 40,552.167 36.8333,549 35,544.5C 31.3208,531.449 27.4874,518.449 23.5,505.5C 23.7093,504.914 24.0426,504.414 24.5,504C 69.3116,502.824 113.978,501.157 158.5,499C 146.657,493.941 134.657,489.274 122.5,485C 113.68,484.888 105.014,486.054 96.5,488.5C 98.814,475.175 102.481,462.009 107.5,449C 102.302,438.77 96.9683,428.604 91.5,418.5C 94.7583,417.107 98.0917,415.94 101.5,415C 84.6141,407.724 67.6141,400.724 50.5,394C 47.1309,391.635 44.9643,388.468 44,384.5C 43.0171,356.08 43.3505,327.747 45,299.5C 47.2643,296.567 50.0976,294.4 53.5,293C 78.4978,292.5 103.498,292.333 128.5,292.5C 130.042,267.488 131.542,242.488 133,217.5C 125.064,206.615 116.898,195.948 108.5,185.5C 106.606,187.781 104.272,188.948 101.5,189C 94.1667,179.333 86.8333,169.667 79.5,160C 90.6919,151.308 102.025,142.808 113.5,134.5C 120.909,143.653 128.076,152.986 135,162.5C 135.667,163.5 135.667,164.5 135,165.5C 133.028,166.305 131.528,167.639 130.5,169.5C 136.641,178.141 142.974,186.641 149.5,195C 158.494,195.5 167.494,195.666 176.5,195.5C 175.589,187.045 176.923,179.045 180.5,171.5C 182.055,168.06 183.888,164.727 186,161.5C 194.654,151.926 204.821,144.426 216.5,139C 256.471,123.708 296.471,123.708 336.5,139C 353.861,145.536 366.527,157.036 374.5,173.5 Z"/></g>
<g><path style="opacity:1" fill="#fcfcfd" d="M 259.5,135.5 C 290.857,132.537 320.191,138.704 347.5,154C 355.978,159.791 362.478,167.291 367,176.5C 370.932,193.369 366.099,207.203 352.5,218C 325.334,235.976 295.334,243.309 262.5,240C 237.32,238.392 215.154,229.558 196,213.5C 179.807,194.274 180.974,176.107 199.5,159C 217.41,145.754 237.41,137.92 259.5,135.5 Z"/></g>
<g><path style="opacity:1" fill="#8e9cb6" d="M 287.5,144.5 C 282.637,144.181 277.97,144.514 273.5,145.5C 270.15,145.665 266.817,145.498 263.5,145C 271.621,143.331 279.621,143.164 287.5,144.5 Z"/></g>
<g><path style="opacity:1" fill="#f9f9fb" d="M 111.5,143.5 C 116.827,149.503 121.827,155.836 126.5,162.5C 121.475,167.43 115.975,171.763 110,175.5C 104.672,169.994 99.8385,163.994 95.5,157.5C 100.557,152.438 105.89,147.772 111.5,143.5 Z"/></g>
<g><path style="opacity:1" fill="#0b285f" d="M 273.5,145.5 C 277.97,144.514 282.637,144.181 287.5,144.5C 306.9,145.467 324.9,150.967 341.5,161C 353.285,168.734 358.451,179.568 357,193.5C 353.808,203.029 347.975,210.529 339.5,216C 317.071,228.286 293.071,233.286 267.5,231C 287.913,230.482 306.913,225.148 324.5,215C 331.096,210.406 336.262,204.573 340,197.5C 342.682,188.653 341.682,180.32 337,172.5C 326.302,160.726 313.136,152.893 297.5,149C 289.592,147.178 281.592,146.012 273.5,145.5 Z"/></g>
<g><path style="opacity:1" fill="#f9f9fb" d="M 441.5,143.5 C 447.728,147.452 453.394,152.119 458.5,157.5C 454.161,163.994 449.328,169.994 444,175.5C 438.025,171.763 432.525,167.43 427.5,162.5C 432.191,156.148 436.858,149.815 441.5,143.5 Z"/></g>
<g><path style="opacity:1" fill="#f3f5f7" d="M 123.5,173.5 C 126.825,176.832 129.825,180.499 132.5,184.5C 131.833,185.833 130.833,186.833 129.5,187.5C 126.152,184.149 123.152,180.482 120.5,176.5C 121.77,175.712 122.77,174.712 123.5,173.5 Z"/></g>
<g><path style="opacity:1" fill="#f3f4f7" d="M 429.5,173.5 C 430.815,174.476 432.148,175.476 433.5,176.5C 430.848,180.482 427.848,184.149 424.5,187.5C 423.167,186.833 422.167,185.833 421.5,184.5C 424.191,180.815 426.858,177.148 429.5,173.5 Z"/></g>
<g><path style="opacity:1" fill="#eff1f4" d="M 136.5,190.5 C 139.469,193.642 142.302,196.975 145,200.5C 144.962,203.706 143.462,204.706 140.5,203.5C 138.167,200.167 135.833,196.833 133.5,193.5C 134.34,192.265 135.34,191.265 136.5,190.5 Z"/></g>
<g><path style="opacity:1" fill="#edf0f4" d="M 416.5,190.5 C 418.2,191.016 419.533,192.016 420.5,193.5C 418.167,196.833 415.833,200.167 413.5,203.5C 411.182,204.834 409.515,204.168 408.5,201.5C 411.191,197.815 413.858,194.148 416.5,190.5 Z"/></g>
<g><path style="opacity:1" fill="#eceef2" d="M 148.5,207.5 C 150.017,207.511 151.184,208.177 152,209.5C 154,212.167 156,214.833 158,217.5C 158.617,218.449 158.451,219.282 157.5,220C 156.241,220.982 154.908,221.315 153.5,221C 151.333,218.167 149.167,215.333 147,212.5C 146.387,210.505 146.887,208.838 148.5,207.5 Z"/></g>
<g><path style="opacity:1" fill="#ebeef2" d="M 403.5,207.5 C 405.595,207.76 406.928,208.926 407.5,211C 405.392,214.94 402.725,218.44 399.5,221.5C 397.77,220.974 396.436,219.974 395.5,218.5C 398.191,214.815 400.858,211.148 403.5,207.5 Z"/></g>
<g><path style="opacity:1" fill="#0193d2" d="M 162.5,211.5 C 167.167,211.5 171.833,211.5 176.5,211.5C 176.5,213.5 176.5,215.5 176.5,217.5C 172.774,217.823 169.107,217.489 165.5,216.5C 164.048,215.06 163.048,213.394 162.5,211.5 Z"/></g>
<g><path style="opacity:1" fill="#0193d2" d="M 377.5,211.5 C 382.214,211.173 386.88,211.507 391.5,212.5C 390.5,213.833 389.5,215.167 388.5,216.5C 384.893,217.489 381.226,217.823 377.5,217.5C 377.5,215.5 377.5,213.5 377.5,211.5 Z"/></g>
<g><path style="opacity:1" fill="#f7f8fa" d="M 368.5,211.5 C 370.719,232.58 363.386,249.747 346.5,263C 330.018,274.606 311.685,281.273 291.5,283C 259.371,287.385 230.371,280.052 204.5,261C 190.152,247.951 183.652,231.784 185,212.5C 194.879,224.364 207.046,233.198 221.5,239C 259.726,252.138 297.726,251.471 335.5,237C 346.62,232.363 356.453,225.863 365,217.5C 366.394,215.612 367.56,213.612 368.5,211.5 Z"/></g>
<g><path style="opacity:1" fill="#ebeef2" d="M 161.5,224.5 C 165.442,227.45 168.775,231.116 171.5,235.5C 170.167,236.5 168.833,237.5 167.5,238.5C 164.271,235.057 161.271,231.39 158.5,227.5C 159.77,226.712 160.77,225.712 161.5,224.5 Z"/></g>
<g><path style="opacity:1" fill="#eceef2" d="M 390.5,224.5 C 392.394,225.048 394.06,226.048 395.5,227.5C 392.729,231.39 389.729,235.057 386.5,238.5C 385.167,237.5 383.833,236.5 382.5,235.5C 385.421,231.981 388.087,228.314 390.5,224.5 Z"/></g>
<g><path style="opacity:1" fill="#132c62" d="M 362.5,227.5 C 363.043,227.56 363.376,227.893 363.5,228.5C 361.151,239.36 355.984,248.693 348,256.5C 347.169,250.141 347.336,243.807 348.5,237.5C 353.586,234.636 358.253,231.302 362.5,227.5 Z"/></g>
<g><path style="opacity:1" fill="#0196d6" d="M 147.5,237.5 C 151.939,240.809 153.605,245.309 152.5,251C 151.593,264.825 150.926,278.658 150.5,292.5C 148.5,292.5 146.5,292.5 144.5,292.5C 145.542,274.169 146.542,255.836 147.5,237.5 Z"/></g>
<g><path style="opacity:1" fill="#0194d3" d="M 404.5,238.5 C 405.117,238.611 405.617,238.944 406,239.5C 407.351,257.145 408.184,274.812 408.5,292.5C 406.833,292.5 405.167,292.5 403.5,292.5C 402.057,276.185 401.223,259.852 401,243.5C 402.176,241.804 403.343,240.138 404.5,238.5 Z"/></g>
<g><path style="opacity:1" fill="#eceff3" d="M 174.5,241.5 C 179.087,244.368 181.92,248.368 183,253.5C 182.311,254.357 181.478,255.023 180.5,255.5C 177.152,252.149 174.152,248.482 171.5,244.5C 172.34,243.265 173.34,242.265 174.5,241.5 Z"/></g>
<g><path style="opacity:1" fill="#7e8fab" d="M 338.5,263.5 C 339.126,256.416 338.459,249.75 336.5,243.5C 337.172,242.733 338.005,242.066 339,241.5C 339.822,249.012 339.655,256.345 338.5,263.5 Z"/></g>
<g><path style="opacity:1" fill="#ebeef2" d="M 377.5,241.5 C 379.645,241.738 381.312,242.738 382.5,244.5C 379.848,248.482 376.848,252.149 373.5,255.5C 371.954,254.788 370.954,253.622 370.5,252C 372.714,248.402 375.047,244.902 377.5,241.5 Z"/></g>
<g><path style="opacity:1" fill="#122c62" d="M 336.5,243.5 C 338.459,249.75 339.126,256.416 338.5,263.5C 336.695,264.237 335.029,265.237 333.5,266.5C 332.167,259.167 332.167,251.833 333.5,244.5C 334.417,243.873 335.417,243.539 336.5,243.5 Z"/></g>
<g><path style="opacity:1" fill="#02245c" d="M 319.5,248.5 C 320.833,248.5 322.167,248.5 323.5,248.5C 323.5,256.167 323.5,263.833 323.5,271.5C 322.178,271.33 321.011,271.663 320,272.5C 319.5,264.507 319.334,256.507 319.5,248.5 Z"/></g>
<g><path style="opacity:1" fill="#08265e" d="M 306.5,251.5 C 307.5,251.5 308.5,251.5 309.5,251.5C 309.666,259.507 309.5,267.507 309,275.5C 308.586,275.957 308.086,276.291 307.5,276.5C 306.502,268.193 306.169,259.86 306.5,251.5 Z"/></g>
<g><path style="opacity:1" fill="#1c3468" d="M 293.5,253.5 C 294.825,257.276 295.491,261.443 295.5,266C 295.167,270.167 294.833,274.333 294.5,278.5C 293.502,270.193 293.169,261.86 293.5,253.5 Z"/></g>
<g><path style="opacity:1" fill="#edeff3" d="M 186.5,258.5 C 190.941,260.965 194.274,264.632 196.5,269.5C 195.653,270.845 194.487,271.845 193,272.5C 189.975,268.976 187.142,265.309 184.5,261.5C 185.193,260.482 185.859,259.482 186.5,258.5 Z"/></g>
<g><path style="opacity:1" fill="#edeff3" d="M 364.5,258.5 C 366.912,258.244 368.579,259.244 369.5,261.5C 366.858,265.309 364.025,268.976 361,272.5C 359.513,271.845 358.347,270.845 357.5,269.5C 360.104,265.946 362.438,262.279 364.5,258.5 Z"/></g>
<g><path style="opacity:1" fill="#f5f6f8" d="M 199.5,275.5 C 201.371,275.859 202.871,276.859 204,278.5C 206.973,282.974 210.14,287.307 213.5,291.5C 210.718,292.952 208.218,292.619 206,290.5C 203.361,286.361 200.528,282.361 197.5,278.5C 198.193,277.482 198.859,276.482 199.5,275.5 Z"/></g>
<g><path style="opacity:1" fill="#f4f6f8" d="M 352.5,275.5 C 357.165,276.849 357.665,279.182 354,282.5C 351.5,285.667 349,288.833 346.5,292C 344.421,292.808 342.421,292.641 340.5,291.5C 344.509,286.137 348.509,280.804 352.5,275.5 Z"/></g>
<g><path style="opacity:1" fill="#f8f9fa" d="M 76.5,324.5 C 83.6481,322.705 88.8148,325.039 92,331.5C 92.6667,342.833 92.6667,354.167 92,365.5C 88.5405,372.812 83.0405,374.979 75.5,372C 73.2911,370.127 71.4578,367.96 70,365.5C 69.3333,354.5 69.3333,343.5 70,332.5C 71.3046,329.039 73.4713,326.372 76.5,324.5 Z"/></g>
<g><path style="opacity:1" fill="#eff1f5" d="M 121.5,333.5 C 121.5,335.833 121.5,338.167 121.5,340.5C 119.167,340.5 116.833,340.5 114.5,340.5C 116.165,334.014 113.832,331.181 107.5,332C 106.167,343 106.167,354 107.5,365C 110.025,365.896 112.192,365.396 114,363.5C 114.497,360.854 114.664,358.187 114.5,355.5C 116.833,355.5 119.167,355.5 121.5,355.5C 123.714,367.775 118.714,373.608 106.5,373C 102.942,371.108 100.442,368.275 99,364.5C 98.3333,353.833 98.3333,343.167 99,332.5C 102.142,325.061 107.642,322.561 115.5,325C 118.863,326.899 120.863,329.732 121.5,333.5 Z"/></g>
<g><path style="opacity:1" fill="#f3f4f7" d="M 135.5,344.5 C 138.287,345.477 141.287,345.81 144.5,345.5C 144.5,347.833 144.5,350.167 144.5,352.5C 141.5,352.5 138.5,352.5 135.5,352.5C 135.5,356.833 135.5,361.167 135.5,365.5C 139.833,365.5 144.167,365.5 148.5,365.5C 148.5,367.833 148.5,370.167 148.5,372.5C 141.5,372.5 134.5,372.5 127.5,372.5C 127.5,356.5 127.5,340.5 127.5,324.5C 134.5,324.5 141.5,324.5 148.5,324.5C 148.5,326.833 148.5,329.167 148.5,331.5C 144.167,331.5 139.833,331.5 135.5,331.5C 135.5,335.833 135.5,340.167 135.5,344.5 Z"/></g>
<g><path style="opacity:1" fill="#f9fafb" d="M 194.5,346.5 C 194.291,345.078 193.791,343.745 193,342.5C 192.5,352.494 192.334,362.494 192.5,372.5C 190.167,372.5 187.833,372.5 185.5,372.5C 185.5,356.5 185.5,340.5 185.5,324.5C 188.5,324.5 191.5,324.5 194.5,324.5C 197.018,334.57 199.851,344.57 203,354.5C 203.5,344.506 203.666,334.506 203.5,324.5C 205.833,324.5 208.167,324.5 210.5,324.5C 210.5,340.5 210.5,356.5 210.5,372.5C 207.833,372.5 205.167,372.5 202.5,372.5C 200.036,363.774 197.369,355.107 194.5,346.5 Z"/></g>
<g><path style="opacity:1" fill="#f6f7f9" d="M 253.5,333.5 C 253.5,335.833 253.5,338.167 253.5,340.5C 251.167,340.5 248.833,340.5 246.5,340.5C 246.802,337.941 246.468,335.607 245.5,333.5C 243.121,330.86 240.621,330.86 238,333.5C 237.333,343.5 237.333,353.5 238,363.5C 240.667,366.167 243.333,366.167 246,363.5C 246.497,360.854 246.664,358.187 246.5,355.5C 248.833,355.5 251.167,355.5 253.5,355.5C 255.528,367.691 250.528,373.524 238.5,373C 235.333,371.167 232.833,368.667 231,365.5C 230.333,354.5 230.333,343.5 231,332.5C 234.12,325.026 239.62,322.526 247.5,325C 250.523,327.177 252.523,330.011 253.5,333.5 Z"/></g>
<g><path style="opacity:1" fill="#f4f5f8" d="M 270.5,324.5 C 280.113,322.456 285.78,326.122 287.5,335.5C 285.076,335.808 282.743,335.474 280.5,334.5C 276.564,328.872 273.897,329.372 272.5,336C 272.542,337.967 273.042,339.801 274,341.5C 279.08,345.909 283.414,350.909 287,356.5C 289.134,368.357 284.301,373.857 272.5,373C 266.895,370.304 263.895,365.804 263.5,359.5C 268.061,358.58 270.895,360.246 272,364.5C 274.966,367.265 277.633,366.932 280,363.5C 280.706,361.029 280.373,358.695 279,356.5C 273.588,351.759 268.921,346.426 265,340.5C 263.212,333.776 265.045,328.442 270.5,324.5 Z"/></g>
<g><path style="opacity:1" fill="#f4f5f8" d="M 384.5,324.5 C 388.967,324.133 393.3,324.633 397.5,326C 400.62,328.408 401.953,331.574 401.5,335.5C 399.473,335.662 397.473,335.495 395.5,335C 391.603,328.73 388.603,329.064 386.5,336C 386.993,338.819 388.16,341.319 390,343.5C 398.751,348.341 402.751,355.674 402,365.5C 398.871,372.148 393.704,374.648 386.5,373C 381.144,370.125 378.477,365.625 378.5,359.5C 380.924,359.192 383.257,359.526 385.5,360.5C 386.485,366.377 389.318,367.711 394,364.5C 394.79,361.366 394.457,358.366 393,355.5C 390.297,352.462 387.297,349.795 384,347.5C 377.867,339.599 378.034,331.932 384.5,324.5 Z"/></g>
<g><path style="opacity:1" fill="#eceef3" d="M 444.5,324.5 C 452.36,322.566 457.86,325.232 461,332.5C 461.667,343.167 461.667,353.833 461,364.5C 456.961,373.115 450.795,375.281 442.5,371C 440.383,369.269 438.883,367.102 438,364.5C 437.333,353.833 437.333,343.167 438,332.5C 439.305,329.039 441.471,326.372 444.5,324.5 Z"/></g>
<g><path style="opacity:1" fill="#f3f4f7" d="M 161.5,324.5 C 165.106,324.211 168.606,324.544 172,325.5C 174.718,341.143 177.218,356.81 179.5,372.5C 176.833,372.5 174.167,372.5 171.5,372.5C 171.577,368.785 171.244,365.119 170.5,361.5C 167.833,361.5 165.167,361.5 162.5,361.5C 161.756,365.119 161.423,368.785 161.5,372.5C 158.833,372.5 156.167,372.5 153.5,372.5C 155.735,356.422 158.402,340.422 161.5,324.5 Z"/></g>
<g><path style="opacity:1" fill="#f9fafb" d="M 217.5,324.5 C 219.833,324.5 222.167,324.5 224.5,324.5C 224.5,340.5 224.5,356.5 224.5,372.5C 222.167,372.5 219.833,372.5 217.5,372.5C 217.5,356.5 217.5,340.5 217.5,324.5 Z"/></g>
<g><path style="opacity:1" fill="#f9fafb" d="M 293.5,324.5 C 295.833,324.5 298.167,324.5 300.5,324.5C 300.5,338.167 300.5,351.833 300.5,365.5C 304.833,365.5 309.167,365.5 313.5,365.5C 313.5,367.833 313.5,370.167 313.5,372.5C 306.833,372.5 300.167,372.5 293.5,372.5C 293.5,356.5 293.5,340.5 293.5,324.5 Z"/></g>
<g><path style="opacity:1" fill="#f3f4f7" d="M 326.5,324.5 C 330.106,324.211 333.606,324.544 337,325.5C 339.718,341.143 342.218,356.81 344.5,372.5C 341.833,372.5 339.167,372.5 336.5,372.5C 336.577,368.785 336.244,365.119 335.5,361.5C 332.833,361.5 330.167,361.5 327.5,361.5C 326.756,365.119 326.423,368.785 326.5,372.5C 323.833,372.5 321.167,372.5 318.5,372.5C 320.735,356.422 323.402,340.422 326.5,324.5 Z"/></g>
<g><path style="opacity:1" fill="#f8f9fa" d="M 350.5,324.5 C 371.439,322.045 378.273,330.712 371,350.5C 367.177,353.964 362.677,355.297 357.5,354.5C 357.5,360.5 357.5,366.5 357.5,372.5C 355.167,372.5 352.833,372.5 350.5,372.5C 350.5,356.5 350.5,340.5 350.5,324.5 Z"/></g>
<g><path style="opacity:1" fill="#fdfdfd" d="M 415.5,324.5 C 415.5,331.5 415.5,338.5 415.5,345.5C 418.5,345.5 421.5,345.5 424.5,345.5C 424.5,338.5 424.5,331.5 424.5,324.5C 426.833,324.5 429.167,324.5 431.5,324.5C 431.5,340.5 431.5,356.5 431.5,372.5C 429.167,372.5 426.833,372.5 424.5,372.5C 424.5,365.833 424.5,359.167 424.5,352.5C 421.5,352.5 418.5,352.5 415.5,352.5C 415.5,359.167 415.5,365.833 415.5,372.5C 413.167,372.5 410.833,372.5 408.5,372.5C 408.5,356.5 408.5,340.5 408.5,324.5C 410.833,324.5 413.167,324.5 415.5,324.5 Z"/></g>
<g><path style="opacity:1" fill="#3a527f" d="M 415.5,324.5 C 416.491,330.979 416.824,337.646 416.5,344.5C 418.833,344.5 421.167,344.5 423.5,344.5C 423.176,337.646 423.509,330.979 424.5,324.5C 424.5,331.5 424.5,338.5 424.5,345.5C 421.5,345.5 418.5,345.5 415.5,345.5C 415.5,338.5 415.5,331.5 415.5,324.5 Z"/></g>
<g><path style="opacity:1" fill="#f8f9fb" d="M 466.5,324.5 C 473.833,324.5 481.167,324.5 488.5,324.5C 488.5,326.833 488.5,329.167 488.5,331.5C 485.833,331.5 483.167,331.5 480.5,331.5C 480.5,345.167 480.5,358.833 480.5,372.5C 478.167,372.5 475.833,372.5 473.5,372.5C 473.5,359.167 473.5,345.833 473.5,332.5C 471.393,331.532 469.059,331.198 466.5,331.5C 466.5,329.167 466.5,326.833 466.5,324.5 Z"/></g>
<g><path style="opacity:1" fill="#1b3166" d="M 78.5,331.5 C 81.0444,331.104 83.2111,331.771 85,333.5C 85.6667,343.5 85.6667,353.5 85,363.5C 82.3333,366.167 79.6667,366.167 77,363.5C 76.3333,353.5 76.3333,343.5 77,333.5C 77.7172,332.956 78.2172,332.289 78.5,331.5 Z"/></g>
<g><path style="opacity:1" fill="#05265d" d="M 447.5,331.5 C 449.722,331.178 451.556,331.845 453,333.5C 453.667,343.5 453.667,353.5 453,363.5C 450.925,365.648 448.592,365.982 446,364.5C 445.833,359.167 445.667,353.833 445.5,348.5C 445.548,342.59 446.214,336.924 447.5,331.5 Z"/></g>
<g><path style="opacity:1" fill="#7e8fac" d="M 466.5,324.5 C 466.5,326.833 466.5,329.167 466.5,331.5C 469.059,331.198 471.393,331.532 473.5,332.5C 470.833,332.5 468.167,332.5 465.5,332.5C 465.194,329.615 465.527,326.948 466.5,324.5 Z"/></g>
<g><path style="opacity:1" fill="#6c80a1" d="M 363.5,332.5 C 361.833,332.5 360.167,332.5 358.5,332.5C 358.5,337.5 358.5,342.5 358.5,347.5C 357.512,342.36 357.179,337.026 357.5,331.5C 359.735,331.205 361.735,331.539 363.5,332.5 Z"/></g>
<g><path style="opacity:1" fill="#07275e" d="M 363.5,332.5 C 364.458,332.953 365.292,333.619 366,334.5C 366.667,338.167 366.667,341.833 366,345.5C 363.865,347.278 361.365,347.945 358.5,347.5C 358.5,342.5 358.5,337.5 358.5,332.5C 360.167,332.5 361.833,332.5 363.5,332.5 Z"/></g>
<g><path style="opacity:1" fill="#697d9e" d="M 488.5,331.5 C 486.393,332.468 484.059,332.802 481.5,332.5C 481.829,346.01 481.496,359.344 480.5,372.5C 480.5,358.833 480.5,345.167 480.5,331.5C 483.167,331.5 485.833,331.5 488.5,331.5 Z"/></g>
<g><path style="opacity:1" fill="#65799b" d="M 121.5,333.5 C 122.473,335.948 122.806,338.615 122.5,341.5C 119.615,341.806 116.948,341.473 114.5,340.5C 116.833,340.5 119.167,340.5 121.5,340.5C 121.5,338.167 121.5,335.833 121.5,333.5 Z"/></g>
<g><path style="opacity:1" fill="#52688f" d="M 245.5,333.5 C 246.468,335.607 246.802,337.941 246.5,340.5C 248.833,340.5 251.167,340.5 253.5,340.5C 253.5,338.167 253.5,335.833 253.5,333.5C 254.473,335.948 254.806,338.615 254.5,341.5C 251.5,341.5 248.5,341.5 245.5,341.5C 245.5,338.833 245.5,336.167 245.5,333.5 Z"/></g>
<g><path style="opacity:1" fill="#21366a" d="M 165.5,338.5 C 166.725,339.152 167.392,340.319 167.5,342C 167.936,345.889 168.603,349.723 169.5,353.5C 167.5,354.833 165.5,354.833 163.5,353.5C 164.726,348.585 165.393,343.585 165.5,338.5 Z"/></g>
<g><path style="opacity:1" fill="#20366a" d="M 330.5,338.5 C 331.725,339.152 332.392,340.319 332.5,342C 332.936,345.889 333.603,349.723 334.5,353.5C 332.5,354.833 330.5,354.833 328.5,353.5C 329.726,348.585 330.393,343.585 330.5,338.5 Z"/></g>
<g><path style="opacity:1" fill="#667a9c" d="M 194.5,346.5 C 193.833,355.167 193.167,363.833 192.5,372.5C 192.334,362.494 192.5,352.494 193,342.5C 193.791,343.745 194.291,345.078 194.5,346.5 Z"/></g>
<g><path style="opacity:1" fill="#5d7296" d="M 135.5,344.5 C 138.833,344.5 142.167,344.5 145.5,344.5C 145.806,347.385 145.473,350.052 144.5,352.5C 144.5,350.167 144.5,347.833 144.5,345.5C 141.287,345.81 138.287,345.477 135.5,344.5 Z"/></g>
<g><path style="opacity:1" fill="#0c9cdb" d="M 240.5,408.5 C 316.55,407.017 392.216,411.517 467.5,422C 462.961,430.912 458.294,439.746 453.5,448.5C 457.445,459.002 460.779,469.668 463.5,480.5C 362.738,467.146 261.738,464.98 160.5,474C 141.741,475.992 123.075,478.492 104.5,481.5C 106.402,470.424 109.402,459.424 113.5,448.5C 109.215,439.429 104.549,430.596 99.5,422C 117.405,419.01 135.405,416.677 153.5,415C 182.628,412.452 211.628,410.286 240.5,408.5 Z"/></g>
<g><path style="opacity:1" fill="#f6fbfd" d="M 235.5,423.5 C 237.167,423.5 238.833,423.5 240.5,423.5C 240.334,432.173 240.5,440.84 241,449.5C 242.667,450.833 244.333,450.833 246,449.5C 246.587,440.817 246.42,432.151 245.5,423.5C 247.167,423.5 248.833,423.5 250.5,423.5C 250.666,432.839 250.5,442.173 250,451.5C 244.591,457.268 239.924,456.601 236,449.5C 235.5,440.84 235.334,432.173 235.5,423.5 Z"/></g>
<g><path style="opacity:1" fill="#f5fbfd" d="M 259.5,422.5 C 263.192,421.971 266.358,422.971 269,425.5C 269.986,427.925 269.319,429.591 267,430.5C 261.919,424.706 259.919,425.706 261,433.5C 264.37,436.535 267.37,439.868 270,443.5C 271.836,451.654 268.669,455.488 260.5,455C 256.911,453.326 255.245,450.493 255.5,446.5C 258.514,446.852 261.014,448.185 263,450.5C 264.833,450 266,448.833 266.5,447C 262.92,442.609 259.42,438.109 256,433.5C 254.662,428.96 255.829,425.293 259.5,422.5 Z"/></g>
<g><path style="opacity:1" fill="#f3fafd" d="M 274.5,422.5 C 279.167,422.5 283.833,422.5 288.5,422.5C 288.5,424.167 288.5,425.833 288.5,427.5C 285.5,427.5 282.5,427.5 279.5,427.5C 279.5,430.5 279.5,433.5 279.5,436.5C 281.5,436.5 283.5,436.5 285.5,436.5C 285.5,437.833 285.5,439.167 285.5,440.5C 283.5,440.5 281.5,440.5 279.5,440.5C 279.5,443.5 279.5,446.5 279.5,449.5C 282.5,449.5 285.5,449.5 288.5,449.5C 288.5,451.167 288.5,452.833 288.5,454.5C 283.833,454.5 279.167,454.5 274.5,454.5C 274.5,443.833 274.5,433.167 274.5,422.5 Z"/></g>
<g><path style="opacity:1" fill="#fefffe" d="M 298.5,423.5 C 299.833,423.5 301.167,423.5 302.5,423.5C 302.5,432.5 302.5,441.5 302.5,450.5C 305.167,450.5 307.833,450.5 310.5,450.5C 310.5,451.833 310.5,453.167 310.5,454.5C 306.5,454.5 302.5,454.5 298.5,454.5C 298.5,444.167 298.5,433.833 298.5,423.5 Z"/></g>
<g><path style="opacity:1" fill="#f0f8fc" d="M 314.5,423.5 C 319.167,423.5 323.833,423.5 328.5,423.5C 328.5,425.167 328.5,426.833 328.5,428.5C 325.5,428.5 322.5,428.5 319.5,428.5C 319.5,431.5 319.5,434.5 319.5,437.5C 321.5,437.5 323.5,437.5 325.5,437.5C 325.5,438.833 325.5,440.167 325.5,441.5C 323.5,441.5 321.5,441.5 319.5,441.5C 319.5,444.5 319.5,447.5 319.5,450.5C 322.5,450.5 325.5,450.5 328.5,450.5C 328.5,452.167 328.5,453.833 328.5,455.5C 323.833,455.5 319.167,455.5 314.5,455.5C 314.5,444.833 314.5,434.167 314.5,423.5 Z"/></g>
<g><path style="opacity:1" fill="#f7fbfd" d="M 219.5,424.5 C 224.742,423.271 228.575,424.937 231,429.5C 231.667,437.167 231.667,444.833 231,452.5C 225.309,458.293 220.643,457.626 217,450.5C 216.333,442.833 216.333,435.167 217,427.5C 218.045,426.627 218.878,425.627 219.5,424.5 Z"/></g>
<g><path style="opacity:1" fill="#f5fafd" d="M 337.5,424.5 C 339.833,424.5 342.167,424.5 344.5,424.5C 345.654,435.198 346.987,445.865 348.5,456.5C 346.833,456.5 345.167,456.5 343.5,456.5C 343.167,453.833 342.833,451.167 342.5,448.5C 340.5,448.5 338.5,448.5 336.5,448.5C 337.47,452.931 335.803,455.265 331.5,455.5C 333.34,445.139 335.34,434.806 337.5,424.5 Z"/></g>
<g><path style="opacity:1" fill="#f2f9fd" d="M 195.5,425.5 C 197.167,425.5 198.833,425.5 200.5,425.5C 200.739,429.842 201.073,434.176 201.5,438.5C 203.167,438.5 204.833,438.5 206.5,438.5C 206.5,434.167 206.5,429.833 206.5,425.5C 208.167,425.5 209.833,425.5 211.5,425.5C 212.078,435.824 212.412,446.157 212.5,456.5C 211.167,456.5 209.833,456.5 208.5,456.5C 208.261,452.158 207.927,447.824 207.5,443.5C 205.5,443.5 203.5,443.5 201.5,443.5C 201.54,448.193 201.873,452.859 202.5,457.5C 200.833,457.5 199.167,457.5 197.5,457.5C 197.255,446.805 196.588,436.138 195.5,425.5 Z"/></g>
<g><path style="opacity:1" fill="#eef8fc" d="M 357.5,424.5 C 365.532,424.535 368.866,428.535 367.5,436.5C 365.833,436.5 364.167,436.5 362.5,436.5C 362.5,434.167 362.5,431.833 362.5,429.5C 360.856,429.286 359.356,429.62 358,430.5C 357.061,437.488 356.728,444.488 357,451.5C 358.938,452.86 360.604,452.527 362,450.5C 362.497,448.19 362.663,445.857 362.5,443.5C 361.5,443.5 360.5,443.5 359.5,443.5C 359.5,441.833 359.5,440.167 359.5,438.5C 362.167,438.5 364.833,438.5 367.5,438.5C 367.248,443.519 366.748,448.519 366,453.5C 360.843,459.134 356.177,458.8 352,452.5C 351.723,444.822 352.056,437.156 353,429.5C 354.366,427.638 355.866,425.972 357.5,424.5 Z"/></g>
<g><path style="opacity:1" fill="#f4fafd" d="M 186.5,426.5 C 188.167,426.5 189.833,426.5 191.5,426.5C 192.167,437.167 192.833,447.833 193.5,458.5C 191.712,458.785 190.045,458.452 188.5,457.5C 186,451.833 183.5,446.167 181,440.5C 181.189,446.805 181.355,453.138 181.5,459.5C 180.167,459.5 178.833,459.5 177.5,459.5C 176.689,448.811 175.689,438.145 174.5,427.5C 176.604,427.201 178.604,427.534 180.5,428.5C 187.258,449.979 189.258,449.313 186.5,426.5 Z"/></g>
<g><path style="opacity:1" fill="#f7fbfd" d="M 372.5,426.5 C 374.199,426.34 375.866,426.506 377.5,427C 376.173,435.413 375.673,443.913 376,452.5C 377.667,453.833 379.333,453.833 381,452.5C 381.655,443.838 382.155,435.172 382.5,426.5C 384.167,426.5 385.833,426.5 387.5,426.5C 387.151,435.876 386.317,445.21 385,454.5C 380.571,459.808 376.237,459.808 372,454.5C 371.434,445.153 371.601,435.82 372.5,426.5 Z"/></g>
<g><path style="opacity:1" fill="#f9fcfe" d="M 165.5,428.5 C 167.167,428.5 168.833,428.5 170.5,428.5C 171.009,438.565 172.009,448.565 173.5,458.5C 171.955,459.452 170.288,459.785 168.5,459.5C 167.962,449.117 166.962,438.784 165.5,428.5 Z"/></g>
<g><path style="opacity:1" fill="#eff8fc" d="M 392.5,427.5 C 396.735,428.436 401.069,428.769 405.5,428.5C 405.5,430.167 405.5,431.833 405.5,433.5C 402.5,433.5 399.5,433.5 396.5,433.5C 396.5,436.167 396.5,438.833 396.5,441.5C 398.5,441.5 400.5,441.5 402.5,441.5C 402.5,443.167 402.5,444.833 402.5,446.5C 400.167,446.5 397.833,446.5 395.5,446.5C 395.037,449.482 394.704,452.482 394.5,455.5C 397.5,455.5 400.5,455.5 403.5,455.5C 403.5,457.167 403.5,458.833 403.5,460.5C 398.833,460.167 394.167,459.833 389.5,459.5C 390.335,448.818 391.335,438.151 392.5,427.5 Z"/></g>
<g><path style="opacity:1" fill="#2ba3de" d="M 221.5,428.5 C 223.451,428.227 224.951,428.893 226,430.5C 226.667,437.167 226.667,443.833 226,450.5C 224.667,451.833 223.333,451.833 222,450.5C 220.384,443.137 220.218,435.804 221.5,428.5 Z"/></g>
<g><path style="opacity:1" fill="#46ade2" d="M 340.5,431.5 C 341.483,435.298 341.817,439.298 341.5,443.5C 340.5,443.5 339.5,443.5 338.5,443.5C 338.74,439.394 339.407,435.394 340.5,431.5 Z"/></g>
<g><path style="opacity:1" fill="#e9f5fb" d="M 414.5,444.5 C 416.167,444.5 417.833,444.5 419.5,444.5C 419.5,446.167 419.5,447.833 419.5,449.5C 417.396,449.799 415.396,449.466 413.5,448.5C 414.246,447.264 414.579,445.93 414.5,444.5 Z"/></g>
<g><path style="opacity:1" fill="#b6e0f4" d="M 150.5,443.5 C 151.833,443.5 153.167,443.5 154.5,443.5C 154.5,445.5 154.5,447.5 154.5,449.5C 152.5,449.5 150.5,449.5 148.5,449.5C 148.259,447.114 148.925,445.114 150.5,443.5 Z"/></g>
<g><path style="opacity:1" fill="#90d3ef" d="M 298.5,423.5 C 299.919,422.549 301.585,422.216 303.5,422.5C 303.5,431.5 303.5,440.5 303.5,449.5C 306.167,449.5 308.833,449.5 311.5,449.5C 311.784,451.415 311.451,453.081 310.5,454.5C 310.5,453.167 310.5,451.833 310.5,450.5C 307.833,450.5 305.167,450.5 302.5,450.5C 302.5,441.5 302.5,432.5 302.5,423.5C 301.167,423.5 299.833,423.5 298.5,423.5 Z"/></g>
<g><path style="opacity:1" fill="#f8f9fa" d="M 200.5,476.5 C 202.604,476.201 204.604,476.534 206.5,477.5C 192.863,495.937 178.863,514.104 164.5,532C 158.942,535.353 152.942,537.187 146.5,537.5C 143.829,527.157 141.163,516.824 138.5,506.5C 149.172,506.667 159.839,506.5 170.5,506C 176.305,504.869 181.138,502.036 185,497.5C 189.998,490.341 195.165,483.341 200.5,476.5 Z"/></g>
<g><path style="opacity:1" fill="#f9fafb" d="M 346.5,475.5 C 348.527,475.338 350.527,475.505 352.5,476C 358.363,482.896 363.863,490.063 369,497.5C 371.592,500.762 374.759,503.262 378.5,505C 390.813,506.106 403.147,507.273 415.5,508.5C 412.426,518.055 409.759,527.722 407.5,537.5C 398.387,537.742 390.887,534.409 385,527.5C 371.904,510.286 359.071,492.952 346.5,475.5 Z"/></g>
<g><path style="opacity:1" fill="#0194d4" d="M 385.5,478.5 C 389.915,478.305 394.249,478.805 398.5,480C 390.057,483.638 381.557,487.138 373,490.5C 371.779,489.728 370.779,488.728 370,487.5C 369.409,486.517 369.743,485.85 371,485.5C 375.986,483.256 380.819,480.922 385.5,478.5 Z"/></g>
<g><path style="opacity:1" fill="#0191d0" d="M 158.5,479.5 C 167.937,479.256 176.604,481.756 184.5,487C 183.274,488.635 181.941,490.135 180.5,491.5C 172.624,487.708 164.624,484.208 156.5,481C 157.416,480.722 158.082,480.222 158.5,479.5 Z"/></g>
<g><path style="opacity:1" fill="#f3b20a" d="M 280.5,493.5 C 284.833,494.167 289.167,494.833 293.5,495.5C 290.185,497.808 286.851,500.141 283.5,502.5C 285.411,506.509 286.411,510.509 286.5,514.5C 283.167,512.167 279.833,509.833 276.5,507.5C 272.858,509.975 269.358,512.642 266,515.5C 266.723,511.316 267.889,507.149 269.5,503C 266.98,499.985 263.98,497.485 260.5,495.5C 264.5,494.833 268.5,494.167 272.5,493.5C 273.906,489.445 275.406,485.445 277,481.5C 278.477,485.43 279.644,489.43 280.5,493.5 Z"/></g>
<g><path style="opacity:1" fill="#444a42" d="M 272.5,493.5 C 268.5,494.167 264.5,494.833 260.5,495.5C 259.711,495.217 259.044,494.717 258.5,494C 263.155,493.501 267.821,493.334 272.5,493.5 Z"/></g>
<g><path style="opacity:1" fill="#414843" d="M 280.5,493.5 C 285.511,493.334 290.511,493.501 295.5,494C 294.956,494.717 294.289,495.217 293.5,495.5C 289.167,494.833 284.833,494.167 280.5,493.5 Z"/></g>
<g><path style="opacity:1" fill="#0194d4" d="M 208.5,498.5 C 232.585,510.953 255.418,525.286 277,541.5C 298.285,525.406 320.785,511.072 344.5,498.5C 346.167,499.5 347.5,500.833 348.5,502.5C 323.134,516.176 299.134,531.843 276.5,549.5C 254.167,531.837 230.5,516.17 205.5,502.5C 206.524,501.148 207.524,499.815 208.5,498.5 Z"/></g>
<g><path style="opacity:1" fill="#f8f9fa" d="M 121.5,507.5 C 125.167,507.5 128.833,507.5 132.5,507.5C 135.167,517.5 137.833,527.5 140.5,537.5C 131.448,537.786 122.448,537.786 113.5,537.5C 110.235,529.54 107.069,521.54 104,513.5C 104.417,521.844 105.251,530.178 106.5,538.5C 98.4407,538.781 90.4407,538.781 82.5,538.5C 79.4315,530.128 76.2649,521.794 73,513.5C 73.8275,522.129 74.6608,530.795 75.5,539.5C 72.1016,539.82 68.7683,539.487 65.5,538.5C 62.7512,529.093 59.7512,519.76 56.5,510.5C 65.8333,509.167 75.1667,509.167 84.5,510.5C 87.6108,517.722 90.4441,525.056 93,532.5C 92.8346,524.5 92.3346,516.5 91.5,508.5C 99.5,508.5 107.5,508.5 115.5,508.5C 118.028,516.247 120.861,523.913 124,531.5C 123.718,523.466 122.885,515.466 121.5,507.5 Z"/></g>
<g><path style="opacity:1" fill="#f9f9fb" d="M 421.5,507.5 C 424.833,507.5 428.167,507.5 431.5,507.5C 431.102,515.537 430.602,523.537 430,531.5C 433.126,523.958 435.959,516.291 438.5,508.5C 446.5,508.5 454.5,508.5 462.5,508.5C 461.665,516.5 461.165,524.5 461,532.5C 463.556,525.056 466.389,517.722 469.5,510.5C 478.833,509.167 488.167,509.167 497.5,510.5C 494.193,519.727 491.193,529.061 488.5,538.5C 485.232,539.487 481.898,539.82 478.5,539.5C 479.668,530.833 480.501,522.166 481,513.5C 477.833,521.833 474.667,530.167 471.5,538.5C 463.559,538.781 455.559,538.781 447.5,538.5C 448.734,530.159 449.567,521.826 450,513.5C 446.931,521.54 443.765,529.54 440.5,537.5C 431.552,537.786 422.552,537.786 413.5,537.5C 416.167,527.5 418.833,517.5 421.5,507.5 Z"/></g>
<g><path style="opacity:1" fill="#f9fafb" d="M 32.5,510.5 C 38.8333,510.5 45.1667,510.5 51.5,510.5C 53.7533,520.263 56.4199,529.929 59.5,539.5C 53.2015,540.496 46.8682,540.83 40.5,540.5C 37.8371,530.516 35.1704,520.516 32.5,510.5 Z"/></g>
<g><path style="opacity:1" fill="#f9fafb" d="M 502.5,510.5 C 508.833,510.5 515.167,510.5 521.5,510.5C 518.83,520.516 516.163,530.516 513.5,540.5C 507.132,540.83 500.798,540.496 494.5,539.5C 497.58,529.929 500.247,520.263 502.5,510.5 Z"/></g>
</svg>
